<svg width="176" height="74" viewBox="0 0 176 74" fill="none" xmlns="http://www.w3.org/2000/svg">
<g filter="url(#filter0_d_524_2236)">
<path d="M10.2713 34.6799H13.7026C20.1223 34.6799 23.9741 30.8241 23.9741 24.841V0H19.2589V24.841C19.2589 28.2757 17.5544 29.982 13.7026 29.982H10.2713C6.41952 29.982 4.53791 28.2757 4.71501 24.841L5.57834 8.99685H1.30591C0.442572 18.8358 0.0219727 24.0654 0.0219727 25.7717C0.0219727 31.2451 4.20585 34.6799 10.2935 34.6799" fill="#E6F4FB"/>
<path d="M95.8532 0H91.1378V25.6831H95.8532V0Z" fill="#E6F4FB"/>
<path d="M59.9025 0H55.1873V25.6831H59.9025V0Z" fill="#E6F4FB"/>
<path d="M76.1513 4.69727H66.5658L66.1453 9.41728H76.1513C79.2282 9.41728 80.866 10.7025 80.866 13.6941V17.1288C80.866 20.1204 79.1616 20.9846 76.1513 20.9846H74.8675C71.8786 20.9846 69.9973 20.1204 70.1521 17.1288L70.4179 11.5667H65.9683L65.4589 17.1288C64.9499 22.6909 68.8905 25.6825 74.8675 25.6825H76.1513C82.1504 25.6825 85.5591 22.6909 85.5591 17.1288V13.6941C85.5591 8.13204 81.7077 4.69727 76.1513 4.69727Z" fill="#E6F4FB"/>
<path d="M163.415 4.69727H143.558L143.137 9.41727H163.415C166.913 9.41727 168.13 10.7025 168.13 13.6941V17.1288C168.13 20.1204 166.846 20.9846 163.415 20.9846H151.439C147.587 20.9846 146.989 20.1204 147.166 17.1288L147.432 11.5667H142.983L142.473 17.1288C142.319 18.68 142.451 19.9431 142.828 20.9846H139.042C136.054 20.9846 134.327 19.6993 134.327 16.7078V13.7163C134.327 8.1542 130.475 4.71942 124.919 4.71942H115.334L114.913 9.43943H124.919C127.996 9.43943 129.634 10.7247 129.634 13.7163V17.151C129.634 19.7215 128.771 21.0068 127.066 21.0068C125.361 21.0068 122.462 20.2755 118.654 19.1675C118.787 18.5471 118.898 17.8822 118.942 17.151L119.207 11.5889H114.758L114.249 17.151C113.983 20.1426 112.965 21.0068 110.397 21.0068H109.976C107.409 21.0068 106.124 20.1426 106.124 17.151V9.01843H101.41V24.8626C101.41 28.7183 99.7046 30.0036 95.8532 30.0036H91.1378V34.7236H95.8532C101.985 34.7236 105.77 31.2002 106.102 24.9069C107.298 25.5052 108.737 25.7268 109.976 25.7268H110.397C113.23 25.7268 115.422 24.8182 116.883 23.0455C122.351 24.9512 125.893 25.7268 127.509 25.7268C129.125 25.7268 131.161 24.8626 132.379 23.4222C133.84 24.8404 136.031 25.7268 139.065 25.7268H163.459C169.458 25.7268 172.867 22.7353 172.867 17.1731V13.7384C172.867 8.17636 169.436 4.74158 163.459 4.74158" fill="#E6F4FB"/>
<path d="M49.6311 23.9762V13.6941C49.6311 8.13204 45.7793 4.69727 40.2229 4.69727H30.6376L30.217 9.41727H40.2229C43.3 9.41727 44.9381 10.7025 44.9381 13.6941V20.9846H38.5184C35.5299 20.9846 34.0689 20.1204 34.246 17.1288L34.5116 11.5667H30.0621L29.5529 17.1288C29.0438 22.6909 32.5414 25.7046 38.1199 25.7046C43.6984 25.7046 42.7023 25.5938 44.9381 25.4387C44.761 28.8291 43.0343 29.9815 39.4039 29.9815H29.5751V34.7015H39.4039C45.8236 34.7015 49.6754 30.8457 49.6754 23.9983" fill="#E6F4FB"/>
<path d="M4.71516 52.584H0V70.9986H4.71516V52.584Z" fill="#E6F4FB"/>
<path d="M28.2465 45.317H23.5314C21.7383 45.317 20.4543 45.8267 19.1704 47.1119L18.7276 47.5552C17.1781 46.0483 14.898 45.2949 11.998 45.2949H0.0219727V50.0149H12.4186C15.4071 50.0149 16.2705 51.3001 16.2705 53.8707V66.4576H20.9856V53.8707C20.9856 52.386 20.7642 51.1007 20.3436 50.0149H27.8259C31.2572 50.0149 32.5411 51.7212 32.5411 54.7349V71.0004H37.2563V54.7349C37.2563 49.1728 34.2678 45.317 28.2687 45.317" fill="#E6F4FB"/>
<path d="M77.4573 45.3164H72.7419V70.9995H77.4573V45.3164Z" fill="#E6F4FB"/>
<path d="M47.4838 59.0117V57.7264C47.4838 52.5854 50.4723 50.0149 54.7668 50.0149H66.3222V45.2949H54.7668C47.4838 45.2949 42.7908 50.0149 42.7908 57.7043V58.9896C42.7908 66.7014 46.6426 70.9781 54.3462 70.9781H67.1855V66.2576H54.3462C49.6311 66.2576 47.5059 64.1084 47.5059 58.9674" fill="#E6F4FB"/>
<path d="M89.3447 45.5605L90.8721 50.1254L91.1157 51.1448H91.226L91.4918 50.1254L93.0192 45.5605H95.4986V52.4522H94.0379V46.8679H93.9491L93.6173 48.0203L92.1559 52.4522H90.208L88.7472 48.0203L88.4148 46.8679H88.326V52.4522H86.8652V45.5605H89.3447Z" fill="#E6F4FB"/>
<path d="M97.5353 47.9974C98.0002 47.5764 98.6865 47.377 99.572 47.377C100.457 47.377 101.122 47.5764 101.609 47.9974C102.074 48.3963 102.317 48.9946 102.317 49.7702V50.1912C102.317 50.9447 102.074 51.5429 101.609 51.9418C101.144 52.3628 100.457 52.5623 99.572 52.5623C98.6865 52.5623 98.0224 52.3628 97.5353 51.9418C97.0703 51.5429 96.8268 50.9447 96.8268 50.1912V49.7702C96.8268 48.9946 97.0703 48.4184 97.5353 47.9974ZM100.546 51.0998C100.745 50.9003 100.856 50.6122 100.856 50.2134V49.6815C100.856 49.3048 100.745 49.0168 100.546 48.8173C100.347 48.6179 100.015 48.5292 99.572 48.5292C99.1293 48.5292 98.7976 48.6179 98.5977 48.8173C98.3986 49.0168 98.2882 49.3048 98.2882 49.6815V50.2134C98.2882 50.6122 98.3986 50.9003 98.5977 51.0998C98.7976 51.2992 99.1293 51.3878 99.572 51.3878C100.015 51.3878 100.325 51.2992 100.546 51.0998Z" fill="#E6F4FB"/>
<path d="M103.689 45.317H105.151V47.7768C105.328 47.666 105.527 47.5552 105.793 47.4887C106.058 47.4222 106.323 47.3779 106.611 47.3779C108.183 47.3779 108.958 48.1313 108.958 49.6603V50.2808C108.958 51.7877 108.183 52.5632 106.611 52.5632C105.04 52.5632 105.858 52.5189 105.571 52.4081C105.283 52.2973 105.062 52.1644 104.929 51.965L104.84 52.4524H103.689V45.2949V45.317ZM106.323 51.4331C106.744 51.4331 107.032 51.3445 107.209 51.1672C107.387 50.9899 107.475 50.7018 107.475 50.303V49.5938C107.475 49.195 107.387 48.9069 107.209 48.7296C107.032 48.5524 106.722 48.4637 106.323 48.4637C105.925 48.4637 105.637 48.5524 105.438 48.7075C105.239 48.8626 105.128 49.1064 105.128 49.3944V50.4802C105.128 51.1007 105.527 51.4109 106.323 51.4109" fill="#E6F4FB"/>
<path d="M111.77 46.558H110.308V45.2949H111.77V46.558ZM111.77 52.4524H110.308V47.4887H111.77V52.4524Z" fill="#E6F4FB"/>
<path d="M114.891 45.3164H113.429V52.4739H114.891V45.3164Z" fill="#E6F4FB"/>
<path d="M116.905 47.9752C117.348 47.5764 118.012 47.377 118.853 47.377C119.694 47.377 120.359 47.5764 120.801 47.9531C121.244 48.3298 121.465 48.9281 121.465 49.7037V50.4571H117.68C117.68 50.7673 117.791 51.0111 117.99 51.1662C118.189 51.3214 118.499 51.3878 118.942 51.3878C119.717 51.3878 120.47 51.3435 121.2 51.2327L121.311 52.3185C120.447 52.4736 119.628 52.5623 118.898 52.5623C118.167 52.5623 117.348 52.3628 116.905 51.9862C116.463 51.6094 116.219 51.0333 116.219 50.302V49.748C116.219 48.9725 116.44 48.3963 116.905 47.9974M120.027 49.6151V49.5043C120.027 49.1497 119.938 48.8838 119.761 48.7287C119.584 48.5736 119.274 48.4849 118.876 48.4849C118.477 48.4849 118.145 48.5736 117.968 48.7508C117.791 48.9281 117.702 49.2162 117.702 49.6151H120.048H120.027Z" fill="#E6F4FB"/>
<path d="M91.1156 54.8224C91.5584 54.9332 91.9345 55.0661 92.2891 55.2434L91.8907 56.285C91.2266 55.9968 90.6063 55.8639 89.9866 55.8639C89.3669 55.8639 88.8797 56.019 88.5702 56.3293C88.26 56.6395 88.1275 57.1491 88.1275 57.8361V58.6339C88.1275 59.2987 88.2822 59.8083 88.5702 60.1186C88.8575 60.4288 89.3225 60.6061 89.9644 60.6061C90.6063 60.6061 90.6285 60.5617 91.0268 60.4731C91.4258 60.3845 91.8019 60.2737 92.1781 60.1186L92.5326 61.1601C92.1121 61.3595 91.6694 61.5146 91.2044 61.6254C90.7173 61.7362 90.2745 61.8027 89.854 61.8027C88.8131 61.8027 88.0165 61.5368 87.4849 60.9828C86.954 60.4288 86.6882 59.6532 86.6882 58.5895V57.9026C86.6882 56.8611 86.954 56.0633 87.5071 55.5094C88.0609 54.9554 88.8575 54.6895 89.92 54.6895C90.9831 54.6895 90.7173 54.7338 91.1378 54.8446" fill="#E6F4FB"/>
<path d="M93.949 57.2162C94.4139 56.7951 95.1002 56.5957 95.9857 56.5957C96.8712 56.5957 97.5353 56.7951 98.0224 57.2162C98.4874 57.615 98.7303 58.2134 98.7303 58.9889V59.41C98.7303 60.1634 98.4874 60.7617 98.0224 61.1606C97.5575 61.5816 96.8712 61.7811 95.9857 61.7811C95.1002 61.7811 94.4361 61.5816 93.949 61.1606C93.4841 60.7617 93.2405 60.1634 93.2405 59.41V58.9889C93.2405 58.2134 93.4841 57.6372 93.949 57.2162ZM96.9378 60.3185C97.137 60.1191 97.2473 59.831 97.2473 59.4321V58.9003C97.2473 58.5236 97.137 58.2355 96.9378 58.036C96.738 57.8366 96.4063 57.748 95.9635 57.748C95.5208 57.748 95.1884 57.8366 94.9892 58.036C94.7901 58.2355 94.6797 58.5236 94.6797 58.9003V59.4321C94.6797 59.831 94.7901 60.1191 94.9892 60.3185C95.1884 60.5179 95.5208 60.6066 95.9635 60.6066C96.4063 60.6066 96.7164 60.5179 96.9378 60.3185Z" fill="#E6F4FB"/>
<path d="M100.103 56.7072H101.254L101.343 57.1726C101.475 56.9953 101.675 56.8623 101.94 56.7515C102.206 56.6407 102.516 56.5964 102.848 56.5964C103.557 56.5964 104.065 56.818 104.353 57.239C104.53 57.0174 104.774 56.8623 105.084 56.7515C105.393 56.6407 105.748 56.5742 106.169 56.5742C106.921 56.5742 107.475 56.7515 107.828 57.1061C108.183 57.4606 108.382 58.0368 108.382 58.8124V61.6488H106.921V58.7902C106.921 58.3913 106.855 58.1033 106.699 57.926C106.545 57.7708 106.301 57.6822 105.969 57.6822C105.305 57.6822 104.973 57.9925 104.973 58.5907V61.6267H103.512V58.768C103.512 58.3692 103.446 58.0811 103.291 57.9038C103.136 57.7487 102.892 57.66 102.56 57.66C101.874 57.66 101.542 57.9703 101.542 58.5686V61.6045H100.081V56.6407L100.103 56.7072Z" fill="#E6F4FB"/>
<path d="M109.932 56.7072H111.083L111.171 57.1726C111.305 56.9953 111.504 56.8623 111.77 56.7515C112.035 56.6407 112.345 56.5964 112.677 56.5964C113.385 56.5964 113.894 56.818 114.182 57.239C114.359 57.0174 114.603 56.8623 114.913 56.7515C115.223 56.6407 115.577 56.5742 115.998 56.5742C116.75 56.5742 117.304 56.7515 117.658 57.1061C118.012 57.4606 118.211 58.0368 118.211 58.8124V61.6488H116.75V58.7902C116.75 58.3913 116.684 58.1033 116.529 57.926C116.374 57.7708 116.13 57.6822 115.799 57.6822C115.134 57.6822 114.802 57.9925 114.802 58.5907V61.6267H113.341V58.768C113.341 58.3692 113.275 58.0811 113.12 57.9038C112.965 57.7487 112.721 57.66 112.389 57.66C111.703 57.66 111.371 57.9703 111.371 58.5686V61.6045H109.91V56.6407L109.932 56.7072Z" fill="#E6F4FB"/>
<path d="M123.568 61.6708L123.48 61.1833C123.347 61.3827 123.125 61.5157 122.838 61.6265C122.55 61.7373 122.218 61.7816 121.864 61.7816C121.111 61.7816 120.558 61.5822 120.203 61.2054C119.849 60.8288 119.672 60.2526 119.672 59.4991V56.707H121.133V59.5656C121.133 59.9645 121.2 60.2304 121.354 60.4077C121.51 60.585 121.775 60.6737 122.152 60.6737C122.904 60.6737 123.281 60.3634 123.281 59.743V56.7292H124.742V61.693H123.59L123.568 61.6708Z" fill="#E6F4FB"/>
<path d="M127.42 56.7065L127.508 57.194C127.664 56.9946 127.863 56.8616 128.151 56.7508C128.438 56.64 128.748 56.5957 129.124 56.5957C129.877 56.5957 130.43 56.7951 130.785 57.1719C131.139 57.5486 131.316 58.1247 131.316 58.8781V61.6702H129.855V58.8338C129.855 58.435 129.788 58.1469 129.634 57.9696C129.479 57.7923 129.213 57.7037 128.836 57.7037C128.084 57.7037 127.708 58.0139 127.708 58.6344V61.6481H126.247V56.6843H127.398L127.42 56.7065Z" fill="#E6F4FB"/>
<path d="M134.305 55.7767H132.844V54.5137H134.305V55.7767ZM134.305 61.6712H132.844V56.7074H134.305V61.6712Z" fill="#E6F4FB"/>
<path d="M140.171 56.8629L139.949 57.9265C139.418 57.8157 138.887 57.7714 138.4 57.7714C137.913 57.7714 137.625 57.8601 137.404 58.0595C137.205 58.2589 137.094 58.547 137.094 58.9459V59.4556C137.094 59.8544 137.205 60.1425 137.404 60.342C137.603 60.5414 137.935 60.63 138.4 60.63C138.865 60.63 139.64 60.5635 140.215 60.4306L140.37 61.5386C140.06 61.6272 139.706 61.6715 139.33 61.738C138.953 61.7823 138.599 61.8045 138.289 61.8045C137.426 61.8045 136.784 61.605 136.319 61.184C135.854 60.7851 135.633 60.1869 135.633 59.4334V59.0123C135.633 58.2367 135.854 57.6606 136.319 57.2396C136.784 56.8186 137.426 56.6191 138.289 56.6191C139.153 56.6191 139.441 56.7078 140.148 56.885" fill="#E6F4FB"/>
<path d="M144.798 57.7702C144.643 57.6594 144.377 57.5929 144.023 57.5929C143.669 57.5929 143.381 57.5929 143.005 57.6372C142.606 57.6594 142.274 57.7037 141.986 57.7702L141.876 56.8394C142.207 56.773 142.584 56.7287 143.005 56.6622C143.425 56.6179 143.801 56.5957 144.134 56.5957C144.93 56.5957 145.528 56.7287 145.905 57.0389C146.281 57.3491 146.48 57.7923 146.48 58.4128V61.6925H145.351L145.241 61.1163C144.953 61.5594 144.355 61.7811 143.425 61.7811C142.495 61.7811 142.252 61.6481 141.942 61.3822C141.61 61.1163 141.455 60.6952 141.455 60.1413C141.455 59.5872 141.632 59.1884 141.964 58.9224C142.296 58.6565 142.872 58.5457 143.669 58.5457H145.019V58.4128C145.019 58.1025 144.953 57.9031 144.798 57.7923M143.115 59.5208C142.983 59.6316 142.894 59.831 142.894 60.0969C142.894 60.3628 142.96 60.5401 143.115 60.6509C143.271 60.7617 143.492 60.8282 143.824 60.8282C144.156 60.8282 144.488 60.7617 144.709 60.6066C144.931 60.4515 145.042 60.2299 145.042 59.964V59.3878H143.846C143.513 59.3878 143.271 59.4543 143.137 59.5651" fill="#E6F4FB"/>
<path d="M148.34 56.7066V55.377H149.801V56.7066H151.018V57.7702H149.801V59.9862C149.801 60.2078 149.845 60.3629 149.955 60.4737C150.066 60.5845 150.199 60.6288 150.398 60.6288H151.018L150.907 61.6925H150.243C148.982 61.6925 148.361 61.0942 148.361 59.9197V57.7924H147.476V56.7287H148.361L148.34 56.7066Z" fill="#E6F4FB"/>
<path d="M153.808 55.7767H152.346V54.5137H153.808V55.7767ZM153.808 61.6712H152.346V56.7074H153.808V61.6712Z" fill="#E6F4FB"/>
<path d="M155.866 57.2162C156.331 56.7951 157.017 56.5957 157.903 56.5957C158.788 56.5957 159.452 56.7951 159.939 57.2162C160.404 57.615 160.648 58.2134 160.648 58.9889V59.41C160.648 60.1634 160.404 60.7617 159.939 61.1606C159.474 61.5816 158.788 61.7811 157.903 61.7811C157.017 61.7811 156.353 61.5816 155.866 61.1606C155.402 60.7617 155.158 60.1634 155.158 59.41V58.9889C155.158 58.2134 155.402 57.6372 155.866 57.2162ZM158.877 60.3185C159.076 60.1191 159.186 59.831 159.186 59.4321V58.9003C159.186 58.5236 159.076 58.2355 158.877 58.036C158.678 57.8366 158.345 57.748 157.903 57.748C157.46 57.748 157.128 57.8366 156.929 58.036C156.73 58.2355 156.619 58.5236 156.619 58.9003V59.4321C156.619 59.831 156.73 60.1191 156.929 60.3185C157.128 60.5179 157.46 60.6066 157.903 60.6066C158.345 60.6066 158.655 60.5179 158.877 60.3185Z" fill="#E6F4FB"/>
<path d="M163.171 56.7065L163.26 57.194C163.415 56.9946 163.614 56.8616 163.902 56.7508C164.19 56.64 164.499 56.5957 164.876 56.5957C165.628 56.5957 166.182 56.7951 166.536 57.1719C166.89 57.5486 167.067 58.1247 167.067 58.8781V61.6702H165.606V58.8338C165.606 58.435 165.54 58.1469 165.385 57.9696C165.23 57.7923 164.964 57.7037 164.588 57.7037C163.835 57.7037 163.459 58.0139 163.459 58.6344V61.6481H161.998V56.6843H163.149L163.171 56.7065Z" fill="#E6F4FB"/>
<path d="M169.392 61.7158C168.971 61.6715 168.595 61.605 168.262 61.5164L168.462 60.5192C169.259 60.6743 169.967 60.7408 170.543 60.7408C171.119 60.7408 171.185 60.6965 171.34 60.63C171.495 60.5635 171.561 60.4306 171.561 60.2312C171.561 60.0317 171.539 60.0538 171.473 60.0095C171.406 59.9652 171.296 59.8987 171.14 59.8766C170.985 59.8323 170.72 59.7879 170.344 59.7215C169.79 59.6328 169.348 59.522 169.06 59.4113C168.772 59.3005 168.55 59.1453 168.44 58.968C168.329 58.7908 168.262 58.547 168.262 58.2367C168.262 57.1509 169.038 56.6191 170.587 56.6191C172.137 56.6191 171.982 56.7078 172.823 56.9072L172.602 57.8822C171.849 57.7493 171.207 57.6828 170.698 57.6828C170.189 57.6828 170.078 57.7271 169.923 57.7936C169.79 57.8601 169.702 57.9708 169.702 58.1481C169.702 58.3254 169.724 58.3476 169.79 58.4141C169.834 58.4805 169.945 58.5249 170.1 58.5692C170.255 58.6135 170.498 58.6578 170.853 58.7021C171.428 58.7908 171.871 58.8794 172.181 59.0123C172.491 59.1453 172.69 59.2783 172.823 59.4556C172.956 59.6328 173 59.8987 173 60.209C173 60.763 172.801 61.1619 172.425 61.4278C172.048 61.6937 171.45 61.8266 170.632 61.8266C169.812 61.8266 169.79 61.8045 169.369 61.7601" fill="#E6F4FB"/>
<path d="M87.3745 66.4354C87.8395 66.0138 88.5258 65.8145 89.4113 65.8145C90.2967 65.8145 90.9608 66.0138 91.4473 66.4354C91.9123 66.8341 92.1558 67.4322 92.1558 68.208V68.629C92.1558 69.3826 91.9123 69.9807 91.4473 70.3794C90.9824 70.8003 90.2967 70.9997 89.4113 70.9997C88.5258 70.9997 87.8617 70.8003 87.3745 70.3794C86.9096 69.9807 86.666 69.3826 86.666 68.629V68.208C86.666 67.4322 86.9096 66.8563 87.3745 66.4354ZM90.3627 69.5375C90.5618 69.3382 90.6729 69.0499 90.6729 68.6512V68.1192C90.6729 67.7427 90.5618 67.4544 90.3627 67.2551C90.1635 67.0557 89.8318 66.9668 89.3891 66.9668C88.9463 66.9668 88.6139 67.0557 88.4148 67.2551C88.2156 67.4544 88.1046 67.7427 88.1046 68.1192V68.6512C88.1046 69.0499 88.2156 69.3382 88.4148 69.5375C88.6139 69.7369 88.9463 69.8258 89.3891 69.8258C89.8318 69.8258 90.1413 69.7369 90.3627 69.5375Z" fill="#E6F4FB"/>
<path d="M94.3473 64.2402C94.7018 63.9077 95.2327 63.7305 95.9635 63.7305H96.8267L96.7164 64.8384H96.1626C95.8309 64.8384 95.6095 64.9049 95.4763 65.0379C95.3437 65.1709 95.2771 65.3921 95.2771 65.7248V65.9242H96.5387V66.9876H95.2771V70.8879H93.8164V66.9876H93.019V65.9242H93.8164V65.7693C93.8164 65.0822 93.9933 64.5725 94.3473 64.2402Z" fill="#E6F4FB"/>
<path d="M101.918 63.9961H100.458V70.888H101.918V63.9961Z" fill="#E6F4FB"/>
<path d="M103.468 65.9256H104.619L104.729 66.5681C105.04 66.0583 105.482 65.8145 106.102 65.8145H106.766L106.656 67.0335H105.992C105.659 67.0335 105.393 67.1224 105.194 67.3217C104.995 67.5211 104.907 67.7871 104.907 68.1192V70.8892H103.446V65.9256H103.468Z" fill="#E6F4FB"/>
<path d="M110.773 66.989C110.618 66.8786 110.353 66.8119 109.999 66.8119C109.644 66.8119 109.357 66.8119 108.98 66.8563C108.582 66.8786 108.25 66.9224 107.962 66.989L107.851 66.0583C108.183 65.9922 108.559 65.9478 108.98 65.8811C109.4 65.8367 109.777 65.8145 110.109 65.8145C110.906 65.8145 111.504 65.9478 111.88 66.2576C112.256 66.5681 112.456 67.0112 112.456 67.6315V70.9115H111.327L111.216 70.335C110.928 70.7781 110.33 70.9997 109.4 70.9997C108.471 70.9997 108.228 70.867 107.917 70.601C107.586 70.335 107.43 69.914 107.43 69.3604C107.43 68.8061 107.607 68.4074 107.94 68.1414C108.271 67.8753 108.847 67.7649 109.644 67.7649H110.994V67.6315C110.994 67.3217 110.928 67.1224 110.773 67.0113M109.069 68.7394C108.935 68.8506 108.847 69.0499 108.847 69.316C108.847 69.582 108.914 69.7591 109.069 69.8696C109.223 69.9807 109.445 70.0474 109.777 70.0474C110.109 70.0474 110.441 69.9807 110.663 69.8258C110.884 69.6702 110.994 69.4486 110.994 69.1826V68.6068H109.799C109.467 68.6068 109.223 68.6734 109.091 68.7839" fill="#E6F4FB"/>
<path d="M115.112 65.9256L115.2 66.4132C115.356 66.2138 115.555 66.0805 115.842 65.97C116.13 65.8589 116.441 65.8145 116.817 65.8145C117.57 65.8145 118.123 66.0138 118.477 66.391C118.831 66.7674 119.008 67.3439 119.008 68.0969V70.8892H117.547V68.0525C117.547 67.6538 117.481 67.3655 117.326 67.1884C117.171 67.0112 116.905 66.9224 116.529 66.9224C115.776 66.9224 115.4 67.2328 115.4 67.8531V70.867H113.939V65.9033H115.09L115.112 65.9256Z" fill="#E6F4FB"/>
<path d="M161.046 13.7611C158.412 12.7639 155.644 12.4315 153.055 12.7861V17.3066C156.154 16.8856 159.474 17.4396 162.573 18.9243V15.9549C162.573 14.9799 161.976 14.0935 161.046 13.7611Z" fill="#E6F4FB"/>
<path d="M75.9071 36.7181C73.2729 35.721 70.5061 35.3885 67.9163 35.7431V40.2637C71.0154 39.8426 74.336 40.3966 77.4351 41.8813V38.9119C77.4351 37.9369 76.837 37.0505 75.9071 36.7181Z" fill="#E6F4FB"/>
</g>
<defs>
<filter id="filter0_d_524_2236" x="0" y="0" width="175.5" height="73.5" filterUnits="userSpaceOnUse" color-interpolation-filters="sRGB">
<feFlood flood-opacity="0" result="BackgroundImageFix"/>
<feColorMatrix in="SourceAlpha" type="matrix" values="0 0 0 0 0 0 0 0 0 0 0 0 0 0 0 0 0 0 127 0" result="hardAlpha"/>
<feOffset dx="1.5" dy="1.5"/>
<feGaussianBlur stdDeviation="0.5"/>
<feComposite in2="hardAlpha" operator="out"/>
<feColorMatrix type="matrix" values="0 0 0 0 0 0 0 0 0 0 0 0 0 0 0 0 0 0 0.7 0"/>
<feBlend mode="normal" in2="BackgroundImageFix" result="effect1_dropShadow_524_2236"/>
<feBlend mode="normal" in="SourceGraphic" in2="effect1_dropShadow_524_2236" result="shape"/>
</filter>
</defs>
</svg>
