<svg width="25" height="24" viewBox="0 0 25 24" fill="none" xmlns="http://www.w3.org/2000/svg">
<path d="M12.2003 2.80541C12.3917 2.72176 12.6094 2.72176 12.8008 2.80541C16.5197 4.43023 20.0442 6.41649 23.33 8.71968C23.5678 8.88636 23.688 9.17532 23.6386 9.46147C23.5892 9.74762 23.379 9.97953 23.0991 10.0568C22.4142 10.2459 21.7352 10.4495 21.0623 10.6665C18.3312 11.5473 15.7023 12.6555 13.1976 13.9689L13.1944 13.9706C13.0808 14.0302 12.9675 14.0902 12.8545 14.1506C12.6336 14.2686 12.3684 14.2686 12.1476 14.1506C12.0334 14.0896 11.9191 14.029 11.8044 13.9689C10.5659 13.3195 9.29707 12.7202 8.00049 12.1738V11.9501C8.00049 11.8187 8.06791 11.7022 8.17222 11.639C9.67734 10.7271 11.2299 9.88577 12.8252 9.11948C13.1986 8.94014 13.3559 8.49207 13.1765 8.1187C12.9972 7.74532 12.5491 7.58803 12.1758 7.76737C10.5365 8.55475 8.94134 9.41921 7.39498 10.356C6.9416 10.6307 6.63681 11.0803 6.53656 11.5839C5.68164 11.255 4.81548 10.9487 3.93878 10.666C3.26595 10.449 2.58693 10.2458 1.90203 10.0568C1.62211 9.97952 1.41195 9.74761 1.36253 9.46146C1.31311 9.17531 1.43331 8.88634 1.6711 8.71967C4.95694 6.41648 8.48146 4.43023 12.2003 2.80541Z" fill="white"/>
<path d="M13.5614 15.4735C16.0002 14.1704 18.5626 13.0688 21.2263 12.1907C21.3605 13.6055 21.4462 15.0344 21.4818 16.4756C21.4894 16.7848 21.3064 17.067 21.0209 17.1862C18.1698 18.3765 15.4579 19.8342 12.9164 21.5278C12.6646 21.6957 12.3365 21.6957 12.0846 21.5278C9.54316 19.8342 6.83122 18.3765 3.98008 17.1862C3.69465 17.067 3.51165 16.7848 3.51927 16.4756C3.55478 15.0343 3.6405 13.6053 3.77476 12.1904C4.69576 12.494 5.60464 12.8243 6.50049 13.1804V14.4508C6.05214 14.7102 5.75049 15.1949 5.75049 15.7501C5.75049 16.2454 5.99057 16.6847 6.36071 16.9578C6.27119 17.3385 6.13871 17.7109 5.96326 18.0676C6.41595 18.2813 6.86477 18.5018 7.30959 18.7291C7.56292 18.2138 7.74661 17.673 7.86063 17.1208C8.38498 16.8871 8.75049 16.3613 8.75049 15.7501C8.75049 15.1949 8.44884 14.7102 8.00049 14.4508V13.806C9.17189 14.3178 10.3193 14.8744 11.4407 15.4735C12.1032 15.8276 12.8988 15.8276 13.5614 15.4735Z" fill="white"/>
<path d="M4.96271 19.4624C5.38184 19.0433 5.71551 18.5712 5.96326 18.0676C6.41595 18.2813 6.86477 18.5018 7.30959 18.7291C6.99103 19.3769 6.56213 19.9843 6.02337 20.5231C5.73048 20.816 5.2556 20.816 4.96271 20.5231C4.66982 20.2302 4.66982 19.7553 4.96271 19.4624Z" fill="white"/>
</svg>
