<svg width="24" height="24" viewBox="0 0 24 24" fill="none" xmlns="http://www.w3.org/2000/svg">
<path d="M11.7003 2.80541C11.8917 2.72176 12.1094 2.72176 12.3008 2.80541C16.0197 4.43023 19.5442 6.41649 22.83 8.71968C23.0678 8.88636 23.188 9.17532 23.1386 9.46147C23.0892 9.74762 22.879 9.97953 22.5991 10.0568C21.9142 10.2459 21.2352 10.4495 20.5623 10.6665C17.8312 11.5473 15.2023 12.6555 12.6976 13.9689L12.6944 13.9706C12.5808 14.0302 12.4675 14.0902 12.3545 14.1506C12.1336 14.2686 11.8684 14.2686 11.6476 14.1506C11.5334 14.0896 11.4191 14.029 11.3044 13.9689C10.0659 13.3195 8.79707 12.7202 7.50049 12.1738V11.9501C7.50049 11.8187 7.56791 11.7022 7.67222 11.639C9.17734 10.7271 10.7299 9.88577 12.3252 9.11948C12.6986 8.94014 12.8559 8.49207 12.6765 8.1187C12.4972 7.74532 12.0491 7.58803 11.6758 7.76737C10.0365 8.55475 8.44134 9.41921 6.89498 10.356C6.4416 10.6307 6.13681 11.0803 6.03656 11.5839C5.18164 11.255 4.31548 10.9487 3.43878 10.666C2.76595 10.449 2.08693 10.2458 1.40203 10.0568C1.12211 9.97952 0.911949 9.74761 0.862528 9.46146C0.813107 9.17531 0.933312 8.88634 1.1711 8.71967C4.45694 6.41648 7.98146 4.43023 11.7003 2.80541Z" fill="black"/>
<path d="M13.0614 15.4735C15.5002 14.1704 18.0626 13.0688 20.7263 12.1907C20.8605 13.6055 20.9462 15.0344 20.9818 16.4756C20.9894 16.7848 20.8064 17.067 20.5209 17.1862C17.6698 18.3765 14.9579 19.8342 12.4164 21.5278C12.1646 21.6957 11.8365 21.6957 11.5846 21.5278C9.04316 19.8342 6.33122 18.3765 3.48008 17.1862C3.19465 17.067 3.01165 16.7848 3.01927 16.4756C3.05478 15.0343 3.1405 13.6053 3.27476 12.1904C4.19576 12.494 5.10464 12.8243 6.00049 13.1804V14.4508C5.55214 14.7102 5.25049 15.1949 5.25049 15.7501C5.25049 16.2454 5.49057 16.6847 5.86071 16.9578C5.77119 17.3385 5.63871 17.7109 5.46326 18.0676C5.91595 18.2813 6.36477 18.5018 6.80959 18.7291C7.06292 18.2138 7.24661 17.673 7.36063 17.1208C7.88498 16.8871 8.25049 16.3613 8.25049 15.7501C8.25049 15.1949 7.94884 14.7102 7.50049 14.4508V13.806C8.67189 14.3178 9.81933 14.8744 10.9407 15.4735C11.6032 15.8276 12.3988 15.8276 13.0614 15.4735Z" fill="black"/>
<path d="M4.46271 19.4624C4.88184 19.0433 5.21551 18.5712 5.46326 18.0676C5.91595 18.2813 6.36477 18.5018 6.80959 18.7291C6.49103 19.3769 6.06213 19.9843 5.52337 20.5231C5.23048 20.816 4.7556 20.816 4.46271 20.5231C4.16982 20.2302 4.16982 19.7553 4.46271 19.4624Z" fill="black"/>
</svg>
