<svg width="14" height="14" viewBox="0 0 14 14" fill="none" xmlns="http://www.w3.org/2000/svg">
<path fill-rule="evenodd" clip-rule="evenodd" d="M6.9999 12.6C10.0927 12.6 12.5999 10.0928 12.5999 7.00002C12.5999 3.90723 10.0927 1.40002 6.9999 1.40002C3.90711 1.40002 1.3999 3.90723 1.3999 7.00002C1.3999 10.0928 3.90711 12.6 6.9999 12.6ZM9.69949 5.73381C9.87003 5.49932 9.81819 5.17098 9.58369 5.00044C9.3492 4.8299 9.02086 4.88174 8.85032 5.11623L6.41169 8.46935L5.09613 7.15379C4.89111 6.94877 4.5587 6.94877 4.35367 7.15379C4.14865 7.35882 4.14865 7.69123 4.35367 7.89626L6.10367 9.64626C6.21224 9.75483 6.3629 9.81043 6.51597 9.79842C6.66904 9.78641 6.80918 9.70799 6.89949 9.58381L9.69949 5.73381Z" fill="#005B85"/>
</svg>
