<svg width="14" height="14" viewBox="0 0 14 14" fill="none" xmlns="http://www.w3.org/2000/svg">
<path fill-rule="evenodd" clip-rule="evenodd" d="M6.64504 1.99676C6.68466 1.70953 6.48393 1.44457 6.1967 1.40495C5.90947 1.36533 5.64451 1.56606 5.60489 1.85329L5.2812 4.20003H2.93872C2.64877 4.20003 2.41372 4.43508 2.41372 4.72503C2.41372 5.01498 2.64877 5.25003 2.93872 5.25003H5.13637L4.65362 8.75003H2.31113C2.02118 8.75003 1.78613 8.98508 1.78613 9.27503C1.78613 9.56498 2.02118 9.80003 2.31113 9.80003H4.50879L4.20489 12.0033C4.16527 12.2905 4.366 12.5555 4.65323 12.5951C4.94046 12.6347 5.20542 12.434 5.24504 12.1468L5.56873 9.80003H7.65879L7.35489 12.0033C7.31527 12.2905 7.516 12.5555 7.80323 12.5951C8.09046 12.6347 8.35542 12.434 8.39504 12.1468L8.71873 9.80003H11.0611C11.3511 9.80003 11.5861 9.56498 11.5861 9.27503C11.5861 8.98508 11.3511 8.75003 11.0611 8.75003H8.86356L9.34632 5.25003H11.6887C11.9787 5.25003 12.2137 5.01498 12.2137 4.72503C12.2137 4.43508 11.9787 4.20003 11.6887 4.20003H9.49114L9.79504 1.99676C9.83466 1.70953 9.63393 1.44457 9.3467 1.40495C9.05947 1.36533 8.79451 1.56606 8.75489 1.85329L8.4312 4.20003H6.34114L6.64504 1.99676ZM6.19632 5.25003L5.71356 8.75003H7.80362L8.28637 5.25003H6.19632Z" fill="#005B85"/>
</svg>
