<svg width="57" height="44" viewBox="0 0 57 44" fill="none" xmlns="http://www.w3.org/2000/svg">
<path fill-rule="evenodd" clip-rule="evenodd" d="M8.5 0C4.08172 0 0.5 3.58172 0.5 8V36C0.5 40.4183 4.08172 44 8.5 44H48.5C52.9183 44 56.5 40.4183 56.5 36V8C56.5 3.58172 52.9183 0 48.5 0H8.5ZM19.5 8C16.1863 8 13.5 10.6863 13.5 14C13.5 17.3137 16.1863 20 19.5 20C22.8137 20 25.5 17.3137 25.5 14C25.5 10.6863 22.8137 8 19.5 8ZM9.17177 31.2074C10.7157 27.0039 14.7545 24 19.4999 24C24.2453 24 28.284 27.0039 29.828 31.2074C30.1723 32.1448 29.7724 33.1926 28.8909 33.6621C26.0888 35.1549 22.8901 36 19.4999 36C16.1097 36 12.911 35.1549 10.1088 33.6621C9.22741 33.1926 8.82744 32.1448 9.17177 31.2074ZM36.5 12C35.3954 12 34.5 12.8954 34.5 14C34.5 15.1046 35.3954 16 36.5 16H46.5C47.6046 16 48.5 15.1046 48.5 14C48.5 12.8954 47.6046 12 46.5 12H36.5ZM34.5 22C34.5 20.8954 35.3954 20 36.5 20H46.5C47.6046 20 48.5 20.8954 48.5 22C48.5 23.1046 47.6046 24 46.5 24H36.5C35.3954 24 34.5 23.1046 34.5 22ZM36.5 28C35.3954 28 34.5 28.8954 34.5 30C34.5 31.1046 35.3954 32 36.5 32H46.5C47.6046 32 48.5 31.1046 48.5 30C48.5 28.8954 47.6046 28 46.5 28H36.5Z" fill="#005B85"/>
</svg>
