<svg width="14" height="14" viewBox="0 0 14 14" fill="none" xmlns="http://www.w3.org/2000/svg">
<path fill-rule="evenodd" clip-rule="evenodd" d="M7 14C10.866 14 14 10.866 14 7C14 3.13401 10.866 0 7 0C3.13401 0 0 3.13401 0 7C0 10.866 3.13401 14 7 14ZM7 3C7.41421 3 7.75 3.33579 7.75 3.75V6.75C7.75 7.16421 7.41421 7.5 7 7.5C6.58579 7.5 6.25 7.16421 6.25 6.75V3.75C6.25 3.33579 6.58579 3 7 3ZM7 11C7.55228 11 8 10.5523 8 10C8 9.44771 7.55228 9 7 9C6.44772 9 6 9.44771 6 10C6 10.5523 6.44772 11 7 11Z" fill="#FF4F00"/>
</svg>
