<svg width="53" height="52" viewBox="0 0 53 52" fill="none" xmlns="http://www.w3.org/2000/svg">
<path fill-rule="evenodd" clip-rule="evenodd" d="M0.5 5C0.5 2.23858 2.73858 0 5.5 0H19.5C22.2614 0 24.5 2.23858 24.5 5V40C24.5 46.6274 19.1274 52 12.5 52C5.87258 52 0.5 46.6274 0.5 40V5ZM12.5 43C14.1569 43 15.5 41.6569 15.5 40C15.5 38.3431 14.1569 37 12.5 37C10.8431 37 9.5 38.3431 9.5 40C9.5 41.6569 10.8431 43 12.5 43Z" fill="#005B85"/>
<path d="M23.084 52H47.5003C50.2617 52 52.5003 49.7614 52.5003 47V33C52.5003 30.2386 50.2617 28 47.5003 28H47.1276L23.8139 51.3137C23.576 51.5515 23.3326 51.7803 23.084 52Z" fill="#005B85"/>
<path d="M28.4688 41.0012L45.7334 23.7365C47.686 21.7839 47.686 18.6181 45.7334 16.6655L35.8339 6.76598C33.8813 4.81336 30.7155 4.81336 28.7629 6.76598L28.4996 7.02927V40C28.4996 40.3362 28.4892 40.6701 28.4688 41.0012Z" fill="#005B85"/>
</svg>
